<svg xmlns="http://www.w3.org/2000/svg" viewBox="0 0 500 500" width="500" height="500">
  <defs>

    <!-- Deep teal-navy background -->
    <linearGradient id="bgGrad" x1="0%" y1="0%" x2="100%" y2="100%">
      <stop offset="0%"   stop-color="#020b18"/>
      <stop offset="60%"  stop-color="#041525"/>
      <stop offset="100%" stop-color="#061d33"/>
    </linearGradient>

    <!-- Electric gold gradient -->
    <linearGradient id="goldMain" x1="0%" y1="100%" x2="100%" y2="0%">
      <stop offset="0%"   stop-color="#B8860B"/>
      <stop offset="35%"  stop-color="#D4AF37"/>
      <stop offset="65%"  stop-color="#F0D060"/>
      <stop offset="100%" stop-color="#FFF0A0"/>
    </linearGradient>

    <!-- Teal/cyan accent -->
    <linearGradient id="tealGrad" x1="0%" y1="0%" x2="100%" y2="100%">
      <stop offset="0%"   stop-color="#00C9A7"/>
      <stop offset="100%" stop-color="#0077B6"/>
    </linearGradient>

    <!-- Chart line gradient -->
    <linearGradient id="chartGrad" x1="0%" y1="0%" x2="100%" y2="0%">
      <stop offset="0%"   stop-color="#00C9A7" stop-opacity="0"/>
      <stop offset="30%"  stop-color="#00C9A7"/>
      <stop offset="70%"  stop-color="#F0D060"/>
      <stop offset="100%" stop-color="#F0D060" stop-opacity="0.3"/>
    </linearGradient>

    <!-- Fill under chart -->
    <linearGradient id="chartFill" x1="0%" y1="0%" x2="0%" y2="100%">
      <stop offset="0%"   stop-color="#00C9A7" stop-opacity="0.18"/>
      <stop offset="100%" stop-color="#00C9A7" stop-opacity="0"/>
    </linearGradient>

    <!-- Glow for main letter -->
    <filter id="goldGlow" x="-40%" y="-40%" width="180%" height="180%">
      <feGaussianBlur stdDeviation="10" result="blur"/>
      <feColorMatrix type="matrix" in="blur"
        values="1 0.8 0 0 0.1  0 0.7 0 0 0  0 0 0 0 0  0 0 0 0.6 0"
        result="colored"/>
      <feMerge>
        <feMergeNode in="colored"/>
        <feMergeNode in="SourceGraphic"/>
      </feMerge>
    </filter>

    <!-- Glow for chart -->
    <filter id="tealGlow" x="-20%" y="-40%" width="140%" height="180%">
      <feGaussianBlur stdDeviation="4" result="blur"/>
      <feMerge>
        <feMergeNode in="blur"/>
        <feMergeNode in="SourceGraphic"/>
      </feMerge>
    </filter>

    <!-- Outer ring glow -->
    <filter id="ringGlow" x="-10%" y="-10%" width="120%" height="120%">
      <feGaussianBlur stdDeviation="5" result="blur"/>
      <feMerge>
        <feMergeNode in="blur"/>
        <feMergeNode in="SourceGraphic"/>
      </feMerge>
    </filter>

    <!-- Clip circle -->
    <clipPath id="circleClip">
      <circle cx="250" cy="250" r="210"/>
    </clipPath>

    <!-- Clip for chart area -->
    <clipPath id="chartClip">
      <rect x="100" y="150" width="300" height="200"/>
    </clipPath>

  </defs>

  <!-- ════════════════════════════
       BACKGROUND
  ════════════════════════════ -->
  <circle cx="250" cy="250" r="250" fill="url(#bgGrad)"/>

  <!-- Radial shimmer -->
  <radialGradient id="shimmer" cx="50%" cy="45%" r="45%">
    <stop offset="0%"   stop-color="#0077B6" stop-opacity="0.12"/>
    <stop offset="100%" stop-color="#0077B6" stop-opacity="0"/>
  </radialGradient>
  <circle cx="250" cy="250" r="250" fill="url(#shimmer)"/>

  <!-- ════════════════════════════
       GRID LINES (trading terminal feel)
  ════════════════════════════ -->
  <g clip-path="url(#circleClip)" opacity="0.07" stroke="#00C9A7" stroke-width="0.6">
    <!-- horizontal -->
    <line x1="40"  y1="145" x2="460" y2="145"/>
    <line x1="40"  y1="195" x2="460" y2="195"/>
    <line x1="40"  y1="245" x2="460" y2="245"/>
    <line x1="40"  y1="295" x2="460" y2="295"/>
    <line x1="40"  y1="345" x2="460" y2="345"/>
    <!-- vertical -->
    <line x1="130" y1="60"  x2="130" y2="440"/>
    <line x1="190" y1="60"  x2="190" y2="440"/>
    <line x1="250" y1="60"  x2="250" y2="440"/>
    <line x1="310" y1="60"  x2="310" y2="440"/>
    <line x1="370" y1="60"  x2="370" y2="440"/>
  </g>

  <!-- ════════════════════════════
       OUTER RINGS
  ════════════════════════════ -->
  <!-- Outer dashed ring -->
  <circle cx="250" cy="250" r="228"
    fill="none" stroke="#D4AF37"
    stroke-width="0.8" stroke-dasharray="4 8"
    opacity="0.25" filter="url(#ringGlow)"/>

  <!-- Main border ring -->
  <circle cx="250" cy="250" r="218"
    fill="none" stroke="#D4AF37"
    stroke-width="2" opacity="0.55"
    filter="url(#ringGlow)"/>

  <!-- Inner accent ring -->
  <circle cx="250" cy="250" r="207"
    fill="none" stroke="#00C9A7"
    stroke-width="0.6" opacity="0.2"/>

  <!-- ════════════════════════════
       CHART LINE (rising trend)
       Runs behind the "س" letter
  ════════════════════════════ -->
  <g clip-path="url(#circleClip)">
    <!-- Area fill under chart -->
    <path d="M 100 330
             L 145 315
             L 175 300
             L 205 285
             L 225 305
             L 250 270
             L 278 245
             L 305 220
             L 330 200
             L 365 175
             L 400 155
             L 400 350
             L 100 350 Z"
      fill="url(#chartFill)" opacity="0.6"/>

    <!-- Chart line itself -->
    <polyline
      points="100,330 145,315 175,300 205,285 225,305 250,270 278,245 305,220 330,200 365,175 400,155"
      fill="none"
      stroke="url(#chartGrad)"
      stroke-width="2.5"
      stroke-linecap="round"
      stroke-linejoin="round"
      filter="url(#tealGlow)"
      opacity="0.75"
    />

    <!-- Chart nodes / data points -->
    <g fill="#00C9A7" opacity="0.9" filter="url(#tealGlow)">
      <circle cx="145" cy="315" r="3"/>
      <circle cx="205" cy="285" r="3"/>
      <circle cx="250" cy="270" r="3"/>
      <circle cx="305" cy="220" r="3"/>
      <circle cx="365" cy="175" r="4.5"/>
    </g>

    <!-- Tip arrow on chart -->
    <polygon points="365,162  371,175  359,175"
      fill="#F0D060" opacity="0.9" filter="url(#tealGlow)"/>
  </g>

  <!-- ════════════════════════════
       MAIN LETTER  "س"
       Hand-crafted as geometric paths
       — three arches + baseline bar
  ════════════════════════════ -->
  <g filter="url(#goldGlow)">

    <!--
      The letter "س" (seen) is constructed from:
        • A wide baseline arc (the bottom sweep)
        • Three teeth arches rising above
        • A bottom horizontal bar (serifs)
      All paths are drawn cleanly with bezier curves.
    -->

    <!-- Bottom horizontal base bar -->
    <rect x="118" y="298" width="264" height="11" rx="5.5"
      fill="url(#goldMain)" opacity="0.95"/>

    <!-- Left arch (3rd tooth of س) -->
    <path d="
      M 148 299
      C 148 299, 132 252, 148 218
      C 158 193, 183 185, 195 199
      C 207 213, 202 240, 195 260
      L 195 299
    "
      fill="url(#goldMain)" opacity="0.9"
    />

    <!-- Middle arch (2nd tooth) -->
    <path d="
      M 215 299
      C 215 299, 205 255, 215 225
      C 222 205, 243 198, 252 210
      C 261 222, 257 252, 252 272
      L 252 299
    "
      fill="url(#goldMain)" opacity="0.88"
    />

    <!-- Right arch (1st tooth — tallest, rightmost) -->
    <path d="
      M 272 299
      C 272 299, 265 248, 278 212
      C 288 185, 315 178, 330 194
      C 347 212, 342 252, 333 275
      L 333 299
    "
      fill="url(#goldMain)" opacity="0.85"
    />

    <!-- Wide curved tail (left sweep of س) -->
    <path d="
      M 118 306
      C 95  306, 78  290, 78  268
      C 78  248, 96  234, 118 238
      L 118 250
      C 108 250, 100 258, 100 268
      C 100 278, 108 288, 118 288
      L 148 288
      L 148 306 Z
    "
      fill="url(#goldMain)" opacity="0.9"
    />

    <!-- Right end cap -->
    <rect x="333" y="288" width="49" height="10" rx="5"
      fill="url(#goldMain)" opacity="0.85"/>

    <!-- Highlight stripe across teeth tops -->
    <rect x="148" y="194" width="6" height="44" rx="3"
      fill="#FFF5C0" opacity="0.45"/>
    <rect x="215" y="208" width="5" height="35" rx="2.5"
      fill="#FFF5C0" opacity="0.35"/>
    <rect x="272" y="202" width="5" height="40" rx="2.5"
      fill="#FFF5C0" opacity="0.3"/>

  </g>

  <!-- ════════════════════════════
       DECORATIVE ELEMENTS
  ════════════════════════════ -->

  <!-- Small tick marks on outer ring (clock-like, financial precision) -->
  <g stroke="#D4AF37" stroke-width="1.5" opacity="0.4">
    <line x1="250" y1="32"  x2="250" y2="46"/>   <!-- top -->
    <line x1="250" y1="454" x2="250" y2="468"/>   <!-- bottom -->
    <line x1="32"  y1="250" x2="46"  y2="250"/>   <!-- left -->
    <line x1="454" y1="250" x2="468" y2="250"/>   <!-- right -->
    <!-- diagonals -->
    <line x1="104" y1="74"  x2="113" y2="84"/>
    <line x1="387" y1="416" x2="396" y2="426"/>
    <line x1="396" y1="74"  x2="387" y2="84"/>
    <line x1="113" y1="416" x2="104" y2="426"/>
  </g>

  <!-- Glowing dot top-right (like live indicator) -->
  <circle cx="338" cy="118" r="6" fill="#00C9A7" opacity="0.9" filter="url(#tealGlow)"/>
  <circle cx="338" cy="118" r="3" fill="#ffffff" opacity="0.9"/>

  <!-- Pulse ring around live dot -->
  <circle cx="338" cy="118" r="11" fill="none" stroke="#00C9A7" stroke-width="1" opacity="0.4"/>
  <circle cx="338" cy="118" r="16" fill="none" stroke="#00C9A7" stroke-width="0.6" opacity="0.2"/>

  <!-- ════════════════════════════
       TEXT: SANAD + tagline
  ════════════════════════════ -->

  <!-- Brand name in Latin below letter -->
  <text x="250" y="365"
    text-anchor="middle"
    font-family="'Trebuchet MS', 'Gill Sans', Verdana, sans-serif"
    font-size="18" font-weight="700"
    letter-spacing="10"
    fill="#D4AF37" opacity="0.85"
  >SANAD</text>

  <!-- Thin rule -->
  <line x1="158" y1="376" x2="342" y2="376"
    stroke="#D4AF37" stroke-width="0.7" opacity="0.3"/>

  <!-- Tagline -->
  <text x="250" y="397"
    text-anchor="middle"
    font-family="'Trebuchet MS', Verdana, sans-serif"
    font-size="10.5" letter-spacing="3.5"
    fill="#00C9A7" opacity="0.65"
  >FINTECH · PAYMENT AUTOMATION</text>

  <!-- Arabic subtitle -->
  <text x="250" y="424"
    text-anchor="middle"
    font-family="'Segoe UI', 'Arial Unicode MS', Tahoma, sans-serif"
    font-size="12" letter-spacing="2"
    fill="#D4AF37" opacity="0.4"
  >التدقيق المالي الذكي</text>

</svg>
